<mxfile host="Electron" agent="Mozilla/5.0 (Windows NT 10.0; Win64; x64) AppleWebKit/537.36 (KHTML, like Gecko) draw.io/26.0.4 Chrome/128.0.6613.186 Electron/32.2.5 Safari/537.36" version="26.0.4">
  <diagram name="Page-1" id="d8aq2GzOtjKwttHOvUNc">
    <mxGraphModel dx="1299" dy="820" grid="1" gridSize="10" guides="1" tooltips="1" connect="1" arrows="1" fold="1" page="1" pageScale="1" pageWidth="827" pageHeight="1169" math="0" shadow="0">
      <root>
        <mxCell id="0" />
        <mxCell id="1" parent="0" />
        <mxCell id="2kLefqoJjBNyUL4bn4Bv-8" style="edgeStyle=orthogonalEdgeStyle;rounded=0;orthogonalLoop=1;jettySize=auto;html=1;exitX=0.5;exitY=1;exitDx=0;exitDy=0;entryX=0.5;entryY=0;entryDx=0;entryDy=0;" edge="1" parent="1" source="2kLefqoJjBNyUL4bn4Bv-1" target="2kLefqoJjBNyUL4bn4Bv-2">
          <mxGeometry relative="1" as="geometry" />
        </mxCell>
        <mxCell id="2kLefqoJjBNyUL4bn4Bv-1" value="Undring" style="rounded=0;whiteSpace=wrap;html=1;" vertex="1" parent="1">
          <mxGeometry x="120" y="200" width="120" height="40" as="geometry" />
        </mxCell>
        <mxCell id="2kLefqoJjBNyUL4bn4Bv-9" style="edgeStyle=orthogonalEdgeStyle;rounded=0;orthogonalLoop=1;jettySize=auto;html=1;exitX=0.5;exitY=1;exitDx=0;exitDy=0;entryX=0.5;entryY=0;entryDx=0;entryDy=0;" edge="1" parent="1" source="2kLefqoJjBNyUL4bn4Bv-2" target="2kLefqoJjBNyUL4bn4Bv-3">
          <mxGeometry relative="1" as="geometry" />
        </mxCell>
        <mxCell id="2kLefqoJjBNyUL4bn4Bv-2" value="Nysgjerrighet" style="rounded=0;whiteSpace=wrap;html=1;" vertex="1" parent="1">
          <mxGeometry x="120" y="280" width="120" height="40" as="geometry" />
        </mxCell>
        <mxCell id="2kLefqoJjBNyUL4bn4Bv-10" style="edgeStyle=orthogonalEdgeStyle;rounded=0;orthogonalLoop=1;jettySize=auto;html=1;exitX=0.5;exitY=1;exitDx=0;exitDy=0;entryX=0.5;entryY=0;entryDx=0;entryDy=0;" edge="1" parent="1" source="2kLefqoJjBNyUL4bn4Bv-3" target="2kLefqoJjBNyUL4bn4Bv-4">
          <mxGeometry relative="1" as="geometry" />
        </mxCell>
        <mxCell id="2kLefqoJjBNyUL4bn4Bv-11" style="edgeStyle=orthogonalEdgeStyle;rounded=0;orthogonalLoop=1;jettySize=auto;html=1;exitX=0.5;exitY=1;exitDx=0;exitDy=0;entryX=0.5;entryY=0;entryDx=0;entryDy=0;" edge="1" parent="1" source="2kLefqoJjBNyUL4bn4Bv-3" target="2kLefqoJjBNyUL4bn4Bv-5">
          <mxGeometry relative="1" as="geometry" />
        </mxCell>
        <mxCell id="2kLefqoJjBNyUL4bn4Bv-3" value="Spørsmål" style="rounded=0;whiteSpace=wrap;html=1;" vertex="1" parent="1">
          <mxGeometry x="120" y="360" width="120" height="40" as="geometry" />
        </mxCell>
        <mxCell id="2kLefqoJjBNyUL4bn4Bv-4" value="Hverdagskunnskap/tro" style="rounded=0;whiteSpace=wrap;html=1;" vertex="1" parent="1">
          <mxGeometry x="-40" y="440" width="120" height="40" as="geometry" />
        </mxCell>
        <mxCell id="2kLefqoJjBNyUL4bn4Bv-12" style="edgeStyle=orthogonalEdgeStyle;rounded=0;orthogonalLoop=1;jettySize=auto;html=1;exitX=0.5;exitY=1;exitDx=0;exitDy=0;entryX=0.5;entryY=0;entryDx=0;entryDy=0;" edge="1" parent="1" source="2kLefqoJjBNyUL4bn4Bv-5" target="2kLefqoJjBNyUL4bn4Bv-6">
          <mxGeometry relative="1" as="geometry" />
        </mxCell>
        <mxCell id="2kLefqoJjBNyUL4bn4Bv-5" value="Vitenskapelig betraktningsmåte" style="rounded=0;whiteSpace=wrap;html=1;" vertex="1" parent="1">
          <mxGeometry x="280" y="440" width="120" height="40" as="geometry" />
        </mxCell>
        <mxCell id="2kLefqoJjBNyUL4bn4Bv-13" style="edgeStyle=orthogonalEdgeStyle;rounded=0;orthogonalLoop=1;jettySize=auto;html=1;exitX=0.5;exitY=1;exitDx=0;exitDy=0;entryX=0.5;entryY=0;entryDx=0;entryDy=0;" edge="1" parent="1" source="2kLefqoJjBNyUL4bn4Bv-6" target="2kLefqoJjBNyUL4bn4Bv-7">
          <mxGeometry relative="1" as="geometry" />
        </mxCell>
        <mxCell id="2kLefqoJjBNyUL4bn4Bv-6" value="Vitenskapelig kunnskap" style="rounded=0;whiteSpace=wrap;html=1;" vertex="1" parent="1">
          <mxGeometry x="280" y="520" width="120" height="40" as="geometry" />
        </mxCell>
        <mxCell id="2kLefqoJjBNyUL4bn4Bv-7" value="Test" style="rounded=1;whiteSpace=wrap;html=1;fillColor=#dae8fc;strokeColor=#6c8ebf;arcSize=25;" vertex="1" parent="1">
          <mxGeometry x="280" y="600" width="120" height="40" as="geometry" />
        </mxCell>
      </root>
    </mxGraphModel>
  </diagram>
</mxfile>
